<?xml version="1.0" encoding="UTF-8"?>
<svg xmlns="http://www.w3.org/2000/svg" width="60" height="60" viewBox="0 0 60 60" fill="none">
  <path d="M11.0458 17.7834L2.48415 22.7418C2.26606 22.8681 2.26269 23.1818 2.47802 23.3127L11.2304 28.6358C11.6575 28.8956 12.1942 28.8935 12.6193 28.6304L21.2036 23.318C21.4185 23.185 21.412 22.8703 21.1918 22.7463L12.3629 17.7754C11.9534 17.5448 11.4525 17.5479 11.0458 17.7834Z" fill="#DEF3FF"></path>
  <path d="M28.7831 1.38007L20.2215 6.33845C20.0034 6.46476 20 6.77846 20.2153 6.90942L28.9677 12.2325C29.3948 12.4922 29.9315 12.4902 30.3566 12.2271L38.9409 6.91464C39.1558 6.78167 39.1493 6.46697 38.9291 6.34301L30.1002 1.37207C29.6907 1.1415 29.1898 1.14454 28.7831 1.38007Z" fill="#DEF3FF"></path>
  <path d="M28.871 33.82L20.3093 38.7784C20.0913 38.9047 20.0879 39.2184 20.3032 39.3494L29.0556 44.6724C29.4827 44.9322 30.0194 44.9301 30.4445 44.667L39.0288 39.3546C39.2437 39.2216 39.2372 38.9069 39.017 38.7829L30.1881 33.812C29.7786 33.5814 29.2777 33.5845 28.871 33.82Z" fill="#DEF3FF"></path>
  <path d="M46.7123 17.6486L38.1507 22.607C37.9326 22.7333 37.9292 23.047 38.1445 23.178L46.8969 28.501C47.324 28.7608 47.8607 28.7587 48.2858 28.4957L56.8701 23.1832C57.085 23.0502 57.0785 22.7355 56.8583 22.6116L48.0294 17.6406C47.6199 17.4101 47.119 17.4131 46.7123 17.6486Z" fill="#DEF3FF"></path>
  <path d="M19.9375 8.77782L29.5351 3.20117L39.2899 8.77782M19.9375 8.77782L29.7697 14.7557M19.9375 8.77782V15M39.2899 8.77782L29.7697 14.7557M39.2899 8.77782V15.4007M29.7697 14.7557V25.4461M29.7697 25.4461L24.3835 22.336M29.7697 25.4461L35.3694 22.1068M2.15466 25.0701L11.7523 19.4935L16.6297 22.2818M2.15466 25.0701L11.9869 31.048M2.15466 25.0701V36.0612L11.9869 41.7384M21.5071 25.0701L11.9869 31.048M21.5071 25.0701V31.2757M21.5071 25.0701L16.6297 22.2818M11.9869 31.048V41.7384M11.9869 41.7384L16.8026 38.8019M19.9375 41.3316L29.7697 47.3094M19.9375 41.3316V52.3226L29.7697 57.9998M19.9375 41.3316L24.7363 38.5432M39.2899 41.3316L29.7697 47.3094M39.2899 41.3316V52.3226L29.7697 57.9998M39.2899 41.3316L34.4125 38.5432M29.7697 47.3094V57.9998M37.8244 25.0701L47.6566 31.048M37.8244 25.0701L42.6232 22.2818M37.8244 25.0701V31.2447M57.1768 25.0701L47.422 19.4935L42.6232 22.2818M57.1768 25.0701L47.6566 31.048M57.1768 25.0701V36.0612L47.6566 41.7384M47.6566 31.048V41.7384M47.6566 41.7384L42.3615 38.681M24.7363 38.5432L29.5351 35.7549L34.4125 38.5432M24.7363 38.5432L16.6237 33.4263M16.6297 22.2818L24.7363 16.939M34.4125 38.5432L42.5216 33.2757M42.6232 22.2818L34.4125 16.939" stroke="#7FBBDC" stroke-width="2.4" stroke-linecap="round" stroke-linejoin="round"></path>
</svg>
